<svg width="112" height="99" viewBox="0 0 112 99" fill="none" xmlns="http://www.w3.org/2000/svg">
    <path d="M56.358 0.940277L0.950806 87.7874H111.756L56.358 0.940277Z" fill="#C6AC75"/>
    <path d="M28.5315 47.1894C28.2814 47.4731 28.0987 47.8086 27.9967 48.1715C27.8947 48.5343 27.876 48.9152 27.9421 49.2861C28.0082 49.657 28.1572 50.0086 28.3784 50.3149C28.5996 50.6212 28.8872 50.8746 29.2202 51.0563C33.859 53.9564 37.7136 58.373 44.1889 57.6906C48.0148 57.3115 48.8373 58.392 48.866 62.2399C48.933 72.0588 48.866 81.8682 48.866 91.687C48.866 92.8338 48.7799 93.9806 48.866 95.118C49.0764 97.44 50.3103 98.909 52.0319 98.7574C54.0596 98.6152 54.8248 97.2884 54.9683 95.4402C55.2457 91.5354 55.5517 87.6211 55.8387 83.7068C55.9821 81.7544 55.9726 79.7736 56.2882 77.8402C56.4221 77.0156 57.2447 76.2858 57.6847 75.5087C58.2777 76.3522 59.1959 77.1294 59.3872 78.0582C59.6483 79.8349 59.7889 81.6271 59.808 83.4225C60.0854 87.3368 60.401 91.2511 60.6688 95.1653C60.7932 97.1746 61.5296 98.8427 63.8347 98.7195C66.1398 98.5963 66.7998 96.9187 66.8094 94.9284V75.8025C66.8094 70.2486 66.8667 64.6852 66.8094 59.1218C66.7424 53.7479 64.7338 51.805 59.2437 51.7292C54.4614 51.6723 49.6025 51.5965 44.801 51.7766C42.1432 51.9549 39.5109 51.1664 37.398 49.5588C35.7998 48.392 34.1361 47.3162 32.4148 46.3364C32.1075 46.1266 31.7598 45.9818 31.3935 45.911C31.0272 45.8402 30.6501 45.845 30.2857 45.925C29.9214 46.005 29.5775 46.1586 29.2757 46.3762C28.9739 46.5937 28.7206 46.8705 28.5315 47.1894Z" fill="#18254B"/>
    <path d="M57.9762 28.8919C56.1962 28.8684 54.449 29.3449 52.9562 30.2608C51.4634 31.1768 50.2923 32.4909 49.5917 34.0365C48.891 35.582 48.6923 37.2893 49.0207 38.9417C49.3492 40.5941 50.19 42.1171 51.4365 43.3174C52.683 44.5177 54.2789 45.3413 56.0218 45.6835C57.7647 46.0258 59.5759 45.8713 61.2257 45.2398C62.8755 44.6082 64.2895 43.528 65.2881 42.1362C66.2868 40.7444 66.8251 39.1038 66.8349 37.4226C66.823 35.1918 65.8913 33.0532 64.2374 31.4605C62.5835 29.8678 60.3376 28.9465 57.9762 28.8919Z" fill="#18254B"/>
    </svg>
